<?xml version="1.0" standalone="no"?>
<!DOCTYPE svg PUBLIC "-//W3C//DTD SVG 20010904//EN"
 "http://www.w3.org/TR/2001/REC-SVG-20010904/DTD/svg10.dtd">
<svg version="1.0" xmlns="http://www.w3.org/2000/svg"
 width="700.000000pt" height="700.000000pt" viewBox="0 0 700.000000 700.000000"
 preserveAspectRatio="xMidYMid meet">
<metadata>
Created by potrace 1.11, written by Peter Selinger 2001-2013
</metadata>
<g transform="translate(0.000000,700.000000) scale(0.100000,-0.100000)"
fill="#000000" stroke="none">
<path d="M0 3500 l0 -3500 3500 0 3500 0 0 3500 0 3500 -3500 0 -3500 0 0
-3500z m6570 0 l0 -3070 -3070 0 -3070 0 0 3070 0 3070 3070 0 3070 0 0 -3070z"/>
<path d="M4588 5795 c-2 -2 -22 -5 -46 -9 -95 -13 -244 -72 -326 -130 -43 -30
-155 -146 -162 -168 -7 -23 -13 -23 -77 6 -55 24 -207 71 -262 81 -90 15 -167
20 -325 19 -190 0 -309 -18 -465 -69 -262 -86 -486 -268 -608 -495 -177 -327
-177 -776 -2 -1095 28 -50 33 -66 22 -72 -24 -14 -98 -116 -128 -174 -91 -181
-96 -418 -14 -604 33 -76 103 -173 161 -224 l47 -41 -79 -83 c-43 -45 -86 -92
-94 -102 -111 -144 -170 -303 -175 -470 -7 -230 66 -415 228 -579 119 -121
251 -199 455 -270 104 -36 295 -78 417 -92 135 -16 664 -7 695 11 3 1 32 6 65
10 32 3 62 8 65 10 3 2 21 6 40 9 85 13 246 67 360 119 109 51 251 159 328
251 86 103 153 258 177 411 7 47 7 253 0 265 -2 4 -7 25 -11 46 -29 192 -154
400 -318 530 -118 94 -325 189 -456 210 -14 2 -34 6 -46 9 -56 12 -186 17
-609 20 -415 2 -469 5 -550 23 -152 33 -235 88 -253 167 -17 77 -3 139 43 189
l34 37 48 -24 c114 -58 317 -114 473 -132 63 -7 308 -7 360 0 19 2 53 7 75 11
22 4 51 8 65 9 39 4 140 32 216 61 378 141 621 451 670 854 11 91 10 247 -2
335 -22 150 -85 324 -157 430 -32 47 -34 69 -7 112 36 59 126 99 228 102 66 1
117 18 163 54 160 123 102 387 -95 434 -22 5 -164 12 -168 8z m-1076 -699 c53
-3 110 -11 125 -17 15 -6 30 -10 33 -10 14 1 90 -23 130 -42 160 -75 283 -219
316 -372 17 -76 20 -110 18 -190 -4 -189 -46 -298 -154 -405 -161 -160 -427
-216 -780 -165 -80 12 -243 76 -294 115 -158 121 -225 268 -220 479 4 190 56
325 164 425 118 109 255 163 460 182 41 3 77 8 78 10 2 1 9 1 15 -1 7 -2 56
-6 109 -9z m427 -2480 c190 -23 356 -126 416 -258 29 -65 35 -94 36 -183 1
-196 -109 -315 -365 -394 -71 -22 -89 -26 -172 -41 -148 -25 -518 -35 -664
-17 -306 38 -545 153 -612 296 -33 69 -31 169 6 241 83 166 320 319 547 353
83 13 713 15 808 3z"/>
</g>
</svg>
