<?xml version="1.0" encoding="utf-8"?>
<!-- Generator: Adobe Illustrator 17.0.0, SVG Export Plug-In . SVG Version: 6.00 Build 0)  -->
<!DOCTYPE svg PUBLIC "-//W3C//DTD SVG 1.1//EN" "http://www.w3.org/Graphics/SVG/1.1/DTD/svg11.dtd">
<svg version="1.1" id="Calque_1" xmlns="http://www.w3.org/2000/svg" xmlns:xlink="http://www.w3.org/1999/xlink" x="0px" y="0px"
	 width="40px" height="40px" viewBox="0 0 40 40" enable-background="new 0 0 40 40" xml:space="preserve">
<path fill="none" stroke="#4A90E2" stroke-width="3" stroke-linecap="round" stroke-miterlimit="10" d="M25.333,14.306
	c0,3.417-2.333,5.167-5.792,5.167c-3.314,0-5.958-1.667-5.958-5.083c0-3.562,2.603-5.292,5.917-5.292
	C23.25,9.097,25.333,11.395,25.333,14.306z"/>
<path fill="none" stroke="#4A90E2" stroke-width="3" stroke-linecap="round" stroke-miterlimit="10" d="M15.042,18.49
	c-1.219,0.406-1.929,1.649-1.714,2.977c0.308,1.898,2.245,2.523,4.597,2.533c2.208,0.01,2.993,0,4.159,0
	c2.25,0,4.792,1.292,4.792,4.208c0,3.376-3.625,4.292-7.208,4.292s-6.875-1.25-6.875-4.083c0-2.583,3.333-4.417,5.417-4.417"/>
<path fill="none" stroke="#4A90E2" stroke-width="3" stroke-linecap="round" stroke-miterlimit="10" d="M27.208,7.931
	c-0.899-0.11-3.113,0.415-3.113,2.833"/>
</svg>
