<svg version="1.1" xmlns="http://www.w3.org/2000/svg" xmlns:xlink="http://www.w3.org/1999/xlink" x="0px" y="0px"
	 width="70px" height="70px" viewBox="0 0 70 70" enable-background="new 0 0 70 70" xml:space="preserve">
	<rect fill="#FFFFFF" width="70" height="70"/>
	<path fill="#4990E2" d="M35.995,67v-7.025c6.999-0.278,13.26-3.473,17.617-8.407l7.635,6.21l1.253-1.555l-7.624-6.201
		c3.14-4.185,5.006-9.388,5.006-15.022c0-5.452-1.752-10.499-4.711-14.612l7.304-5.592l-1.206-1.592l-7.328,5.61
		c-4.366-5.15-10.769-8.503-17.946-8.789V3h-1.991v7.025c-6.999,0.278-13.26,3.473-17.617,8.407l-7.635-6.21L7.5,13.777
		l7.624,6.201c-3.14,4.185-5.006,9.388-5.006,15.022c0,5.452,1.752,10.499,4.711,14.612l-7.304,5.592l1.206,1.592l7.328-5.61
		c4.366,5.15,10.769,8.504,17.946,8.789V67H35.995L35.995,67z M28.033,35c0-3.859,3.125-7,6.967-7s6.967,3.141,6.967,7
		S38.842,42,35,42S28.033,38.859,28.033,35L28.033,35z M35.995,57.975V43.941c2.012-0.226,3.823-1.124,5.209-2.465l10.861,8.833
		C48.076,54.793,42.37,57.699,35.995,57.975L35.995,57.975z M57.892,35c0,5.157-1.699,9.924-4.562,13.764L42.48,39.94
		c0.932-1.419,1.478-3.116,1.478-4.94c0-1.812-0.539-3.497-1.46-4.91l11.091-8.49C56.292,25.376,57.892,30.003,57.892,35
		L57.892,35z M52.356,20.028l-11.127,8.518c-1.389-1.354-3.21-2.261-5.233-2.487V12.025
		C42.528,12.308,48.357,15.354,52.356,20.028L52.356,20.028z M34.005,12.025v14.033c-2.012,0.226-3.823,1.124-5.209,2.465
		L17.935,19.69C21.924,15.207,27.63,12.301,34.005,12.025L34.005,12.025z M12.108,35c0-5.157,1.699-9.924,4.562-13.764
		l10.85,8.824c-0.932,1.419-1.478,3.116-1.478,4.94c0,1.812,0.539,3.497,1.46,4.91L16.412,48.4
		C13.708,44.624,12.108,39.997,12.108,35L12.108,35z M17.644,49.972l11.127-8.518c1.389,1.354,3.21,2.261,5.233,2.487v14.033
		C27.472,57.692,21.643,54.646,17.644,49.972L17.644,49.972z"/>
</svg>
