<?xml version="1.0" encoding="UTF-8" standalone="no"?>
<svg width="56px" height="64px" viewBox="0 0 56 64" version="1.1" xmlns="http://www.w3.org/2000/svg" xmlns:xlink="http://www.w3.org/1999/xlink">
    <!-- Generator: Sketch 40.1 (33804) - http://www.bohemiancoding.com/sketch -->
    <title>icon-organisation</title>
    <desc>Created with Sketch.</desc>
    <defs></defs>
    <g id="Page-1" stroke="none" stroke-width="1" fill="none" fill-rule="evenodd">
        <g id="Profil" transform="translate(-306.000000, -841.000000)" fill="#4990E2">
            <g id="icon-organisation" transform="translate(306.000000, 841.000000)">
                <g id="Shape">
                    <path d="M29,64 L29,56.975 C36.032,56.697 42.323,53.502 46.7,48.568 L54.371,54.778 L55.63,53.223 L47.97,47.022 C51.125,42.837 53,37.634 53,32 C53,26.548 51.24,21.501 48.267,17.388 L55.606,11.796 L54.394,10.204 L47.031,15.814 C42.644,10.664 36.211,7.311 29,7.025 L29,0 L27,0 L27,7.025 C19.968,7.303 13.677,10.498 9.3,15.432 L1.629,9.222 L0.37,10.777 L8.03,16.978 C4.875,21.163 3,26.366 3,32 C3,37.452 4.76,42.499 7.733,46.612 L0.394,52.204 L1.606,53.796 L8.969,48.186 C13.356,53.336 19.789,56.69 27,56.975 L27,64 L29,64 L29,64 Z M21,32 C21,28.141 24.14,25 28,25 C31.86,25 35,28.141 35,32 C35,35.859 31.86,39 28,39 C24.14,39 21,35.859 21,32 L21,32 Z M29,54.975 L29,40.941 C31.022,40.715 32.841,39.817 34.234,38.476 L45.146,47.309 C41.138,51.793 35.405,54.699 29,54.975 L29,54.975 Z M51,32 C51,37.157 49.293,41.924 46.416,45.764 L35.515,36.94 C36.451,35.521 37,33.824 37,32 C37,30.188 36.458,28.503 35.533,27.09 L46.676,18.6 C49.393,22.376 51,27.003 51,32 L51,32 Z M45.438,17.028 L34.258,25.546 C32.862,24.192 31.033,23.285 29,23.059 L29,9.025 C35.564,9.308 41.42,12.354 45.438,17.028 L45.438,17.028 Z M27,9.025 L27,23.058 C24.978,23.284 23.159,24.182 21.766,25.523 L10.854,16.69 C14.862,12.207 20.595,9.301 27,9.025 L27,9.025 Z M5,32 C5,26.843 6.707,22.076 9.584,18.236 L20.485,27.06 C19.549,28.479 19,30.176 19,32 C19,33.812 19.542,35.497 20.467,36.91 L9.324,45.4 C6.607,41.624 5,36.997 5,32 L5,32 Z M10.562,46.972 L21.742,38.454 C23.138,39.808 24.967,40.715 27,40.941 L27,54.974 C20.436,54.692 14.58,51.646 10.562,46.972 L10.562,46.972 Z"></path>
                </g>
            </g>
        </g>
    </g>
</svg>