<svg version="1.1" xmlns="http://www.w3.org/2000/svg" xmlns:xlink="http://www.w3.org/1999/xlink" x="0px" y="0px"
	 width="70px" height="70px" viewBox="0 0 70 70" enable-background="new 0 0 70 70" xml:space="preserve">
	<rect fill="#FFFFFF" width="70" height="70"/>
	<path fill="#4990E2" d="M3,50.366h17V63.5l15.37-13.134H67V6.5H3V50.366L3,50.366z M5,8.494h60v39.878H34.63
		L22,59.165V48.372H5V8.494L5,8.494z"/>
	<path fill="#4990E2" d="M34.529,38.285L35,38.535l0.471-0.25C35.9,38.057,46,32.604,46,25.442
		c0-3.41-2.579-5.982-6-5.982c-2.085,0-3.924,1.065-5,2.679c-1.076-1.614-2.915-2.679-5-2.679c-3.421,0-6,2.572-6,5.982
		C24,32.604,34.1,38.057,34.529,38.285L34.529,38.285z M30,21.454c2.206,0,4,1.789,4,3.988h2c0-2.199,1.794-3.988,4-3.988
		c2.317,0,4,1.677,4,3.988c0,5.187-7.086,9.694-9,10.817c-1.914-1.123-9-5.63-9-10.817C26,23.131,27.683,21.454,30,21.454
		L30,21.454z"/>
</svg>
