<?xml version="1.0" encoding="UTF-8" standalone="no"?>
<svg width="44px" height="64px" viewBox="0 0 44 64" version="1.1" xmlns="http://www.w3.org/2000/svg" xmlns:xlink="http://www.w3.org/1999/xlink">
    <!-- Generator: Sketch 40.1 (33804) - http://www.bohemiancoding.com/sketch -->
    <title>icon-decouverte</title>
    <desc>Created with Sketch.</desc>
    <defs></defs>
    <g id="Page-1" stroke="none" stroke-width="1" fill="none" fill-rule="evenodd">
        <g id="Profil" transform="translate(-728.000000, -841.000000)" fill="#4990E2">
            <g id="icon-decouverte" transform="translate(728.000000, 841.000000)">
                <g id="Shape">
                    <path d="M30,64 L30,58 L32,58 L32,52 L34,52 L34,46 L34.001,40.442 C40.272,36.359 44,29.507 44,22 C44,9.869 34.131,0 22,0 C9.869,0 0,9.869 0,22 C0,29.459 3.817,36.514 10,40.55 L10,44 L10,46 L10,52 L12,52 L12,58 L14,58 L14,64 L30,64 L30,64 Z M28,62 L16,62 L16,58 L28,58 L28,62 L28,62 Z M11.524,39.148 C5.649,35.53 2,28.96 2,22 C2,10.972 10.972,2 22,2 C33.028,2 42,10.972 42,22 C42,28.995 38.439,35.366 32.477,39.041 L32,39.334 L32,44 L27.161,44 L29.989,25.148 L28.01,24.851 L27.902,25.573 L25.093,27.679 L22,24.586 L18.906,27.68 L16.097,25.574 L15.989,24.852 L14.01,25.149 L16.839,44 L12,44 L12,39.441 L11.524,39.148 L11.524,39.148 Z M18.861,44 L16.52,28.39 L19.094,30.321 L22,27.414 L24.906,30.32 L27.48,28.389 L25.139,44 L18.861,44 L18.861,44 Z M12,46 L32,46 L32,50 L12,50 L12,46 L12,46 Z M14,52 L30,52 L30,56 L14,56 L14,52 L14,52 Z"></path>
                </g>
            </g>
        </g>
    </g>
</svg>