<?xml version="1.0" encoding="UTF-8" standalone="no"?>
<svg width="31px" height="28px" viewBox="0 0 31 28" version="1.1" xmlns="http://www.w3.org/2000/svg" xmlns:xlink="http://www.w3.org/1999/xlink">
    <!-- Generator: Sketch 40.1 (33804) - http://www.bohemiancoding.com/sketch -->
    <title>Sign 3</title>
    <desc>Created with Sketch.</desc>
    <defs></defs>
    <g id="Symbols" stroke="none" stroke-width="1" fill="none" fill-rule="evenodd">
        <g id="Logo" transform="translate(-11.000000, -11.000000)" fill="#FFFFFF">
            <g id="V1" transform="translate(1.000000, 0.000000)">
                <g id="Sign-3" transform="translate(10.000000, 11.000000)">
                    <path d="M19.6673,23.2908 C19.3483,17.6638 18.4493,12.0368 17.5873,6.4768 C17.5833,6.4518 17.5733,6.4268 17.5683,6.4018 C23.5713,5.2898 30.8943,8.5178 27.7703,15.8978 C26.8583,18.0508 23.1613,21.9548 19.6673,23.2908 M12.3503,4.4198 C11.4233,4.9978 13.1453,8.2498 13.9283,7.7608 C14.4273,7.4498 14.9703,7.1888 15.5393,6.9698 C16.3843,12.4138 17.2153,17.9148 17.4443,23.4128 C17.4483,23.5218 17.4703,23.6348 17.4983,23.7488 C16.5133,23.7638 15.6023,23.4668 14.8503,22.7308 C13.4993,21.4078 14.4223,24.8958 15.0613,25.5208 C18.0723,28.4698 22.5503,26.1168 25.3823,24.0518 C28.6153,21.6938 30.5893,18.1228 30.6313,14.1378 C30.7283,5.0028 19.6313,-0.1232 12.3503,4.4198" id="Fill-4"></path>
                    <path d="M6.9725,0.7075 C0.8985,-3.1495 -0.0485,9.8815 0.0015,12.7985 C0.0815,17.3775 0.9655,23.8935 4.9425,26.9445 C9.8285,30.6925 12.0125,21.5645 12.7255,18.4915 C12.9395,17.5695 12.0275,15.8195 11.0875,15.5335 C8.9805,14.8935 7.0755,15.6585 5.3635,16.9705 C4.4985,17.6335 6.5615,20.6865 7.3145,20.1095 C8.0475,19.5485 8.9015,19.0115 9.8055,18.7155 C9.1565,21.1395 8.1275,23.7085 6.0465,24.5955 C2.9515,25.9145 2.4435,17.4015 2.3505,16.1915 C2.0525,12.3525 2.0775,6.9025 5.1115,4.0615 C8.1635,1.2035 10.8685,7.7845 10.6395,10.1935 C10.5495,11.1485 12.8095,13.8745 12.9375,12.5225 C13.3115,8.5845 10.2495,2.7885 6.9725,0.7075" id="Fill-1"></path>
                </g>
            </g>
        </g>
    </g>
</svg>