<?xml version="1.0" encoding="UTF-8" standalone="no"?>
<svg width="33px" height="32px" viewBox="0 0 33 32" version="1.1" xmlns="http://www.w3.org/2000/svg" xmlns:xlink="http://www.w3.org/1999/xlink">
    <!-- Generator: Sketch 40.1 (33804) - http://www.bohemiancoding.com/sketch -->
    <title>Fill 1</title>
    <desc>Created with Sketch.</desc>
    <defs></defs>
    <g id="Symbols" stroke="none" stroke-width="1" fill="none" fill-rule="evenodd">
        <g id="Logo" transform="translate(-10.000000, -9.000000)" fill="#FFFFFF">
            <g id="V1" transform="translate(1.000000, 0.000000)">
                <g id="Sign-2">
                    <path d="M30.6048395,34.2668541 C30.3443132,28.4506378 29.4663395,22.6309622 28.5683921,16.871827 C33.0642079,16.6236108 37.4393132,18.9483676 39.5782342,23.4223135 C41.4757342,27.3903135 35.6121553,33.1805838 30.6048395,34.2668541 M23.6079711,13.7920432 C22.8507079,14.2625297 22.5502342,16.2612324 22.5319974,17.5706378 C21.7304447,13.8473946 19.5863132,9.77734054 16.3410237,9.0915027 C10.0493132,7.76220541 9.05410263,21.2860973 9.00633947,24.6556108 C8.93860263,29.4201514 9.37281316,37.3950703 14.0926816,40.2179892 C19.0409447,43.1775568 22.0022605,30.6499892 22.5398132,28.3408 C22.6804974,27.7414486 23.0843132,25.8525838 22.1629184,25.5740973 C19.8642079,24.8787459 17.6757868,25.9762595 15.8564447,27.3643676 C14.7622342,28.1989622 14.2203395,33.159827 15.7861026,31.9645838 C17.0071026,31.0331243 18.4252342,30.3498811 19.9241289,30.4450162 C19.2198395,33.1157189 17.9354447,36.3027459 15.3510237,35.1827459 C12.5877079,33.9849081 11.9728658,29.0110703 11.6367868,26.567827 C11.2512079,23.7691243 10.3376289,13.1252324 15.6289184,14.2426378 C17.9788658,14.7390703 20.7612868,20.391827 20.5737079,22.3619892 C20.2384974,25.8768 22.6370763,23.7379892 22.8498395,21.5040432 C22.9271289,20.6928 22.8854447,19.7388541 22.7421553,18.7286919 C23.5549974,18.2244757 24.3991026,17.8326919 25.2579711,17.5334486 C26.1177079,23.0443676 27.0000237,28.6149622 27.3786553,34.1890162 C26.8350237,34.0013405 26.3391553,33.7081514 25.9127605,33.2921514 C25.3291816,32.7230703 23.5011553,37.2272865 24.3582868,38.0636108 C27.4272868,41.0569081 32.2869711,38.3248 35.1162868,36.2698811 C38.5317868,33.7894486 40.6099184,29.9572324 41.5096026,25.9183135 C43.8334974,15.4768 32.6447605,8.17734054 23.6079711,13.7920432" id="Fill-1"></path>
                </g>
            </g>
        </g>
    </g>
</svg>