<?xml version="1.0" encoding="UTF-8" standalone="no"?>
<svg width="53px" height="64px" viewBox="0 0 53 64" version="1.1" xmlns="http://www.w3.org/2000/svg" xmlns:xlink="http://www.w3.org/1999/xlink">
    <!-- Generator: Sketch 40.1 (33804) - http://www.bohemiancoding.com/sketch -->
    <title>icon-social</title>
    <desc>Created with Sketch.</desc>
    <defs></defs>
    <g id="Page-1" stroke="none" stroke-width="1" fill="none" fill-rule="evenodd">
        <g id="Profil" transform="translate(-1143.000000, -841.000000)" fill="#4990E2">
            <g id="icon-social" transform="translate(1143.000000, 841.000000)">
                <g id="Layer_1">
                    <g>
                        <path d="M49.382,34 L21,34 L21,12 L49.382,12 L43.882,23 L49.382,34 L49.382,34 Z M27,10 L27,5 L2,5 L2,0 L0,0 L0,5 L0,31 L0,64 L2,64 L2,31 L19,31 L19,36 L52.618,36 L46.118,23 L52.618,10 L27,10 L27,10 Z M22.784,10 L25,8.173 L25,10 L22.784,10 L22.784,10 Z M2,29 L2,7 L23.278,7 L19,10.528 L19,29 L2,29 L2,29 Z" id="Shape"></path>
                    </g>
                </g>
            </g>
        </g>
    </g>
</svg>