<?xml version="1.0" encoding="UTF-8" standalone="no"?>
<svg width="65px" height="61px" viewBox="0 0 65 61" version="1.1" xmlns="http://www.w3.org/2000/svg" xmlns:xlink="http://www.w3.org/1999/xlink">
    <!-- Generator: Sketch 40.1 (33804) - http://www.bohemiancoding.com/sketch -->
    <title>icon-technique</title>
    <desc>Created with Sketch.</desc>
    <defs></defs>
    <g id="Page-1" stroke="none" stroke-width="1" fill="none" fill-rule="evenodd">
        <g id="Profil" transform="translate(-1131.000000, -348.000000)" fill="#4990E2">
            <g id="icon-technique" transform="translate(1131.000000, 348.000000)">
                <g id="Layer_1">
                    <g>
                        <path d="M41,35.586 L36.85,31.436 L44.409,24 L48,24 C53.019,24 59,21.658 59,10.5 L59,8.927 L50.222,13.042 L47.184,9.878 L51.024,1 L49.5,1 C38.342,1 36,7.011 36,12 L36,15.59 L28.558,23.144 L16.414,11 L19.612,7.802 L7.845,0.741 L4.741,3.845 L11.802,15.613 L15,12.414 L27.154,24.568 L2.788,49.298 L2.61,49.478 L0.618,56.309 L3.586,59.102 L10.443,57.406 L35.423,32.839 L39.586,37 L36.586,40 L57,60.414 L64.414,53 L44,32.586 L41,35.586 L41,35.586 Z M7.259,4.155 L8.155,3.259 L16.387,8.198 L12.198,12.387 L7.259,4.155 L7.259,4.155 Z M9.432,55.595 L4.164,56.899 L2.882,55.692 L4.39,50.523 L38,16.41 L38,12 C38,6.4 41.261,3.479 47.958,3.104 L44.816,10.34 L49.778,15.457 L56.952,12.095 C56.547,18.67 53.54,22 48,22 L43.591,22 L9.432,55.595 L9.432,55.595 Z M57,57.586 L39.414,40 L44,35.414 L61.586,53 L57,57.586 L57,57.586 Z" id="Shape"></path>
                    </g>
                </g>
            </g>
        </g>
    </g>
</svg>