<svg version="1.1" xmlns="http://www.w3.org/2000/svg" xmlns:xlink="http://www.w3.org/1999/xlink" x="0px" y="0px"
	 width="70px" height="70px" viewBox="0 0 70 70" enable-background="new 0 0 70 70" xml:space="preserve">
	<rect fill="#FFFFFF" width="70" height="70"/>
	<path fill="#4990E2" d="M43.511,40.036l-4.163-4.173l7.583-7.477h3.602c5.035,0,11.035-2.355,11.035-13.574
				v-1.582l-8.806,4.138l-3.048-3.181l3.852-8.927h-1.529c-11.194,0-13.543,6.044-13.543,11.06v3.61l-7.466,7.595L18.847,15.315
				l3.208-3.216L10.25,5L7.136,8.121l7.084,11.832l3.208-3.217l12.193,12.221L5.177,53.823l-0.179,0.181L3,60.873l2.977,2.808
				l6.879-1.705l25.06-24.702l4.176,4.184l-3.01,3.016L59.562,65L67,57.545L46.521,37.02L43.511,40.036L43.511,40.036z
				 M9.662,8.433l0.899-0.901l8.258,4.966l-4.202,4.212L9.662,8.433L9.662,8.433z M11.842,60.155l-5.285,1.311l-1.286-1.214
				l1.513-5.197l33.717-34.3v-4.434c0-5.631,3.271-8.568,9.99-8.945l-3.152,7.276l4.978,5.145l7.197-3.38
				c-0.406,6.611-3.423,9.959-8.981,9.959H46.11L11.842,60.155L11.842,60.155z M59.562,62.157L41.92,44.474l4.601-4.611
				l17.642,17.682L59.562,62.157L59.562,62.157z"/>
</svg>
