<?xml version="1.0" encoding="UTF-8" standalone="no"?>
<svg width="64px" height="58px" viewBox="0 0 64 58" version="1.1" xmlns="http://www.w3.org/2000/svg" xmlns:xlink="http://www.w3.org/1999/xlink">
    <!-- Generator: Sketch 40.1 (33804) - http://www.bohemiancoding.com/sketch -->
    <title>icon-passionne</title>
    <desc>Created with Sketch.</desc>
    <defs></defs>
    <g id="Page-1" stroke="none" stroke-width="1" fill="none" fill-rule="evenodd">
        <g id="Profil" transform="translate(-721.000000, -355.000000)" fill="#4990E2">
            <g id="icon-passionne" transform="translate(721.000000, 355.000000)">
                <g id="Layer_1">
                    <g>
                        <g id="Group">
                            <path d="M0,44 L17,44 L17,57.174 L32.37,44 L64,44 L64,0 L0,0 L0,44 L0,44 Z M2,2 L62,2 L62,42 L31.63,42 L19,52.826 L19,42 L2,42 L2,2 L2,2 Z" id="Shape"></path>
                            <path d="M31.529,31.882 L32,32.133 L32.471,31.882 C32.9,31.653 43,26.184 43,19 C43,15.58 40.421,13 37,13 C34.915,13 33.076,14.068 32,15.687 C30.924,14.068 29.085,13 27,13 C23.579,13 21,15.58 21,19 C21,26.184 31.1,31.653 31.529,31.882 L31.529,31.882 Z M27,15 C29.206,15 31,16.794 31,19 L33,19 C33,16.794 34.794,15 37,15 C39.317,15 41,16.682 41,19 C41,24.203 33.914,28.724 32,29.85 C30.086,28.724 23,24.203 23,19 C23,16.682 24.683,15 27,15 L27,15 Z" id="Shape"></path>
                        </g>
                    </g>
                </g>
            </g>
        </g>
    </g>
</svg>