<svg version="1.1" xmlns="http://www.w3.org/2000/svg" xmlns:xlink="http://www.w3.org/1999/xlink" x="0px" y="0px"
	 width="70px" height="70px" viewBox="0 0 70 70" enable-background="new 0 0 70 70" xml:space="preserve">
	<rect fill="#FFFFFF" width="70" height="70"/>
	<path fill="#4990E2" d="M43,67v-6h2v-6h2v-6l0.001-5.558C53.272,39.359,57,32.507,57,25c0-12.131-9.869-22-22-22
		s-22,9.869-22,22c0,7.459,3.817,14.514,10,18.55V47v2v6h2v6h2v6H43L43,67z M41,65H29v-4h12V65L41,65z M24.524,42.148
		C18.649,38.53,15,31.96,15,25c0-11.028,8.972-20,20-20s20,8.972,20,20c0,6.995-3.561,13.366-9.523,17.041L45,42.334V47h-4.839
		l2.828-18.852l-1.979-0.297l-0.108,0.722l-2.809,2.106L35,27.586l-3.094,3.094l-2.809-2.106l-0.108-0.722l-1.979,0.297
		L29.839,47H25v-4.559L24.524,42.148L24.524,42.148z M31.861,47L29.52,31.39l2.574,1.931L35,30.414l2.906,2.906l2.574-1.931
		L38.139,47H31.861L31.861,47z M25,49h20v4H25V49L25,49z M27,55h16v4H27V55L27,55z"/>
</svg>
