<?xml version="1.0" encoding="UTF-8" standalone="no"?>
<svg width="64px" height="54px" viewBox="0 0 64 54" version="1.1" xmlns="http://www.w3.org/2000/svg" xmlns:xlink="http://www.w3.org/1999/xlink">
    <!-- Generator: Sketch 40.1 (33804) - http://www.bohemiancoding.com/sketch -->
    <title>icon-experience</title>
    <desc>Created with Sketch.</desc>
    <defs></defs>
    <g id="Page-1" stroke="none" stroke-width="1" fill="none" fill-rule="evenodd">
        <g id="Profil" transform="translate(-306.000000, -352.000000)" fill="#4990E2">
            <g id="icon-experience" transform="translate(306.000000, 352.000000)">
                <g id="Layer_1">
                    <g>
                        <g id="Group">
                            <path d="M53,0 L45,0 L45,4 L19,4 L19,0 L11,0 L11,4 L0,4 L0,54 L64,54 L64,4 L53,4 L53,0 L53,0 Z M47,2 L51,2 L51,8 L47,8 L47,2 L47,2 Z M13,2 L17,2 L17,8 L13,8 L13,2 L13,2 Z M2,52 L2,14 L62,14 L62,52 L2,52 L2,52 Z M62,6 L62,12 L2,12 L2,6 L11,6 L11,10 L19,10 L19,6 L45,6 L45,10 L53,10 L53,6 L62,6 L62,6 Z" id="Shape"></path>
                            <path d="M9,30 L21,30 L21,18 L9,18 L9,30 L9,30 Z M11,20 L19,20 L19,28 L11,28 L11,20 L11,20 Z" id="Shape"></path>
                            <path d="M9,48 L21,48 L21,36 L9,36 L9,48 L9,48 Z M11,38 L19,38 L19,46 L11,46 L11,38 L11,38 Z" id="Shape"></path>
                            <path d="M43,30 L55,30 L55,18 L43,18 L43,30 L43,30 Z M45,20 L53,20 L53,28 L45,28 L45,20 L45,20 Z" id="Shape"></path>
                            <path d="M43,48 L55,48 L55,36 L43,36 L43,48 L43,48 Z M45,38 L53,38 L53,46 L45,46 L45,38 L45,38 Z" id="Shape"></path>
                            <path d="M26,30 L38,30 L38,18 L26,18 L26,30 L26,30 Z M28,20 L36,20 L36,28 L28,28 L28,20 L28,20 Z" id="Shape"></path>
                            <path d="M26,48 L38,48 L38,36 L26,36 L26,48 L26,48 Z M28,38 L36,38 L36,46 L28,46 L28,38 L28,38 Z" id="Shape"></path>
                        </g>
                    </g>
                </g>
            </g>
        </g>
    </g>
</svg>