<?xml version="1.0" encoding="UTF-8" standalone="no"?>
<svg width="101px" height="131px" viewBox="0 0 101 131" version="1.1" xmlns="http://www.w3.org/2000/svg" xmlns:xlink="http://www.w3.org/1999/xlink">
    <!-- Generator: Sketch 3.6.1 (26313) - http://www.bohemiancoding.com/sketch -->
    <title>LOGO</title>
    <desc>Created with Sketch.</desc>
    <defs></defs>
    <g id="Page-1" stroke="none" stroke-width="1" fill="none" fill-rule="evenodd">
        <g id="Labo3G" transform="translate(-790.000000, -148.000000)" fill="#FFFFFF">
            <g id="LOGO" transform="translate(790.000000, 148.000000)">
                <path d="M9.91884483,70.3973695 C11.6436456,70.3973695 13.0424352,68.999326 13.0424352,67.2737792 C13.0424352,65.5482324 11.6436456,64.1494428 9.91884483,64.1494428 C8.19329802,64.1494428 6.79525448,65.5482324 6.79525448,67.2737792 C6.79525448,68.999326 8.19329802,70.3973695 9.91884483,70.3973695" id="Fill-1"></path>
                <path d="M76.5564337,55.6761351 C78.2812345,55.6761351 79.680024,54.2773456 79.680024,52.5517988 C79.680024,50.826998 78.2812345,49.4282084 76.5564337,49.4282084 C74.8308869,49.4282084 73.4320973,50.826998 73.4320973,52.5517988 C73.4320973,54.2773456 74.8308869,55.6761351 76.5564337,55.6761351" id="Fill-2"></path>
                <path d="M87.844479,40.5207165 C89.5692798,40.5207165 90.9680693,39.1219269 90.9680693,37.3971261 C90.9680693,35.6715793 89.5692798,34.2727897 87.844479,34.2727897 C86.1189322,34.2727897 84.7201426,35.6715793 84.7201426,37.3971261 C84.7201426,39.1219269 86.1189322,40.5207165 87.844479,40.5207165" id="Fill-3"></path>
                <path d="M38.5794835,6.87292672 C40.3050303,6.87292672 41.7030738,5.47413716 41.7030738,3.74933637 C41.7030738,2.02378956 40.3050303,0.625 38.5794835,0.625 C36.8546827,0.625 35.4566392,2.02378956 35.4566392,3.74933637 C35.4566392,5.47413716 36.8546827,6.87292672 38.5794835,6.87292672" id="Fill-4"></path>
                <path d="M15.2969109,112.998905 C13.5713641,112.998905 12.1725746,114.396948 12.1725746,116.121749 C12.1725746,117.847296 13.5713641,119.246831 15.2969109,119.246831 C17.0217117,119.246831 18.4212473,117.847296 18.4212473,116.121749 C18.4212473,114.396948 17.0217117,112.998905 15.2969109,112.998905" id="Fill-5"></path>
                <path d="M17.2589464,27.6757251 C18.9844933,27.6757251 20.3825368,26.2769356 20.3825368,24.5521348 C20.3825368,22.826588 18.9844933,21.4285444 17.2589464,21.4285444 C15.5333996,21.4285444 14.1353561,22.826588 14.1353561,24.5521348 C14.1353561,26.2769356 15.5333996,27.6757251 17.2589464,27.6757251" id="Fill-6"></path>
                <path d="M81.0049575,124.463757 C79.2794107,124.463757 77.8806211,125.861054 77.8806211,127.586601 C77.8806211,129.311402 79.2794107,130.710938 81.0049575,130.710938 C82.7297583,130.710938 84.1285479,129.311402 84.1285479,127.586601 C84.1285479,125.861054 82.7297583,124.463757 81.0049575,124.463757" id="Fill-7"></path>
                <path d="M14.237561,52.4965932 C14.237561,55.9469408 17.0336481,58.7437739 20.4839957,58.7437739 C23.9343433,58.7437739 26.7311764,55.9469408 26.7311764,52.4965932 C26.7311764,49.0469916 23.9343433,46.2501585 20.4839957,46.2501585 C17.0336481,46.2501585 14.237561,49.0469916 14.237561,52.4965932" id="Fill-8"></path>
                <path d="M52.0526246,21.7523176 C55.5029722,21.7523176 58.2990593,18.9554845 58.2990593,15.5051369 C58.2990593,12.0555353 55.5029722,9.25870221 52.0526246,9.25870221 C48.602277,9.25870221 45.8054439,12.0555353 45.8054439,15.5051369 C45.8054439,18.9554845 48.602277,21.7523176 52.0526246,21.7523176" id="Fill-9"></path>
                <path d="M85.3124833,70.3973695 C85.3124833,73.8477171 88.1093165,76.6445502 91.5596641,76.6445502 C95.0100116,76.6445502 97.8060987,73.8477171 97.8060987,70.3973695 C97.8060987,66.9470219 95.0100116,64.1509348 91.5596641,64.1509348 C88.1093165,64.1509348 85.3124833,66.9470219 85.3124833,70.3973695" id="Fill-10"></path>
                <path d="M13.1834332,87.8162162 C11.7756913,88.1019423 11.0729395,88.2511465 9.66892776,88.5637294 C9.65922948,93.5590867 9.64878519,98.555936 9.63908691,103.552039 C12.8148987,102.846303 16.0078691,102.2189 19.2157598,101.67878 C19.2172518,100.629875 19.2179979,100.10393 19.2202359,99.0542781 C17.1955347,99.3967018 15.1745635,99.7712044 13.1617986,100.179278 C13.1685127,96.0582573 13.176719,91.9372368 13.1834332,87.8162162" id="Fill-11"></path>
                <path d="M24.9989154,85.7497378 C23.1748938,91.0382814 21.3560943,96.329063 19.5484852,101.624321 C20.9778616,101.384848 21.6932959,101.272199 23.1256564,101.061821 C23.5904275,99.5675406 23.8216941,98.8185354 24.2857192,97.3272392 C26.2097076,97.0564336 28.1366801,96.8162148 30.0666367,96.6035988 C30.5246937,97.9800077 30.7529761,98.6693312 31.2110331,100.04947 C32.6501078,99.89952 33.3700181,99.8316321 34.8113309,99.7107767 C32.9925315,94.8743219 31.1700019,90.0393591 29.3437423,85.2051424 C27.6040211,85.4020919 26.7349065,85.511011 24.9989154,85.7497378 L24.9989154,85.7497378 Z M25.1496116,94.5430885 C25.5763357,93.1726477 25.7904438,92.4892924 26.2186599,91.1210897 C26.2410405,91.0427575 26.2768495,90.9226481 26.328325,90.7585234 C26.3775624,90.5951448 26.4327679,90.4064015 26.4939417,90.1937855 C26.5551154,89.9804234 26.6207652,89.753633 26.6893992,89.5119222 C26.7595252,89.2709574 26.8266671,89.0322306 26.8915709,88.7957419 C26.9564747,88.5585072 27.0146644,88.3339549 27.0639018,88.1228309 C27.1138852,87.9109609 27.1817731,87.5737594 27.1847572,87.5737594 C27.1847572,87.5737594 27.2877081,88.091498 27.3787227,88.4212393 C27.4704833,88.7517267 27.567466,89.0792299 27.6704169,89.4052412 C27.7718758,89.7305064 27.8696046,90.0274228 27.9613652,90.2967364 C28.0531258,90.56605 28.1210137,90.7592695 28.166521,90.8771408 C28.5969751,92.1379165 28.8118292,92.7683043 29.2422834,94.031318 C27.603275,94.2185693 26.7841439,94.3200282 25.1496116,94.5430885 L25.1496116,94.5430885 Z" id="Fill-12"></path>
                <path d="M46.8856824,92.2237089 C46.6118927,91.9596174 46.2925957,91.7544616 45.9277913,91.6097335 C45.562987,91.4642594 45.1690879,91.3583244 44.7460939,91.2889444 C44.7460939,91.2479133 44.7468399,91.2270247 44.7468399,91.1859935 C45.1616277,91.1121374 45.5294161,90.9771076 45.8487131,90.7809041 C46.1657721,90.5847005 46.4380698,90.3452277 46.6618761,90.0602477 C46.8826984,89.7760136 47.0535372,89.4477644 47.1684244,89.0762459 C47.2833117,88.7047273 47.3422474,88.3085901 47.3422474,87.8848502 C47.3422474,87.1806062 47.2049795,86.5897575 46.9326818,86.1137961 C46.659638,85.6370886 46.2538026,85.2558718 45.7166674,84.9731298 C45.1787862,84.6896418 44.5103513,84.4934382 43.7113627,84.3889953 C42.9123741,84.2852983 41.9828318,84.2584416 40.9234818,84.3129011 C38.951748,84.41436 37.9655081,84.4777718 35.9975045,84.6307061 C35.9930283,89.6253174 35.9892982,94.6214207 35.9855681,99.616032 C37.9655081,99.4623516 39.9476862,99.3400042 41.9306103,99.2482436 C42.8377719,99.2072124 43.6501889,99.0774047 44.3693533,98.8550905 C45.0877716,98.6335222 45.7002549,98.3321297 46.2030731,97.9471828 C46.7066374,97.5629819 47.0930763,97.1019409 47.3623899,96.5618216 C47.6317035,96.0194642 47.7674794,95.408473 47.7674794,94.7243716 C47.7674794,94.137253 47.6891472,93.6389109 47.5317367,93.2315834 C47.3743263,92.8242559 47.1587262,92.4878004 46.8856824,92.2237089 L46.8856824,92.2237089 Z M39.5634853,86.9911169 C40.2401265,86.9508317 40.57882,86.9321812 41.2562072,86.8986103 C42.13129,86.855341 42.7713761,86.9545618 43.1749735,87.1873204 C43.5770789,87.4215711 43.7792506,87.8259145 43.7792506,88.4003507 C43.7792506,88.6875689 43.7389654,88.939724 43.6576491,89.1575622 C43.5770789,89.3761463 43.4442871,89.5604136 43.2592739,89.7111098 C43.0757527,89.8618061 42.8332958,89.9789314 42.5333953,90.0639778 C42.2334949,90.1482782 41.8619763,90.2004997 41.4158557,90.2228803 C40.6743108,90.2586893 40.3027922,90.2788319 39.5612473,90.3221011 C39.5627393,88.9897074 39.5627393,88.3235106 39.5634853,86.9911169 L39.5634853,86.9911169 Z M44.0306597,95.340585 C43.9463593,95.5964703 43.8053613,95.8158005 43.6099038,96.0015597 C43.4137002,96.185827 43.1555769,96.3327931 42.8377719,96.4417122 C42.5177289,96.5498852 42.1245758,96.6147891 41.6553285,96.6371697 C40.8160548,96.6774549 40.3960449,96.6990895 39.5582632,96.7483269 C39.5582632,95.1869047 39.5597552,94.4058206 39.5597552,92.8436524 C40.3624739,92.7973991 40.7623412,92.7750185 41.5650599,92.7362254 C42.0559418,92.7130987 42.4677455,92.7399555 42.7982328,92.8153036 C43.1279742,92.8899057 43.3965417,93.006285 43.5994595,93.1629494 C43.8031232,93.3196139 43.9463593,93.5098493 44.0306597,93.7366397 C44.1157061,93.9626841 44.1582293,94.2155852 44.1582293,94.4953431 C44.1582293,94.8027038 44.114214,95.0846998 44.0306597,95.340585 L44.0306597,95.340585 Z" id="Fill-13"></path>
                <path d="M62.2514791,86.2950792 C61.6345196,85.5841211 60.8519435,85.0186371 59.9074808,84.6068334 C58.963018,84.1942838 57.8447324,83.9630172 56.5548619,83.9219861 C55.2552932,83.8809549 54.1317854,84.0420955 53.1828466,84.3942174 C52.2331617,84.7463394 51.4483475,85.2610939 50.8261659,85.9302749 C50.2039843,86.5987098 49.7399592,87.4096347 49.4355826,88.3570815 C49.131952,89.3052743 48.9797637,90.3608942 48.9797637,91.5231951 C48.9797637,92.6840039 49.131206,93.7403698 49.4355826,94.6915467 C49.7392132,95.6427236 50.2010002,96.4551406 50.8201977,97.1317817 C51.4386492,97.8091689 52.2234634,98.3366058 53.1731483,98.7185686 C54.1235792,99.1005314 55.2441029,99.3071792 56.5362114,99.3474644 C57.8275739,99.3884955 58.9480976,99.2519737 59.8970365,98.9304386 C60.8459753,98.6089035 61.6300435,98.130704 62.2522251,97.4928559 C62.8736607,96.8550079 63.3361937,96.0731778 63.6383323,95.1443815 C63.9412169,94.2155852 64.0926591,93.1741398 64.0919131,92.0200451 C64.0911671,90.850284 63.9397248,89.7827278 63.6353482,88.8151385 C63.3302256,87.8475491 62.8699306,87.0067833 62.2514791,86.2950792 L62.2514791,86.2950792 Z M60.1827626,93.8962882 C60.0328123,94.5139937 59.8030378,95.0309863 59.491947,95.4509962 C59.1808562,95.869514 58.7817349,96.185827 58.2930911,96.3976969 C57.8051933,96.610313 57.2195667,96.7043116 56.5354654,96.682677 C55.8655384,96.6610424 55.2896101,96.5312347 54.8054425,96.2872858 C54.3212748,96.044829 53.9184234,95.7038973 53.5991263,95.2652369 C53.2805753,94.8265765 53.0440866,94.2939174 52.8904063,93.6665137 C52.7359799,93.0391099 52.6591397,92.333374 52.6591397,91.5470677 C52.6591397,90.7615075 52.7352339,90.0565176 52.8889142,89.43359 C53.0425946,88.8099163 53.2798293,88.2817334 53.5983803,87.8490411 C53.9169313,87.4170949 54.3227668,87.0888456 54.8151407,86.8680234 C55.3060226,86.6472012 55.886427,86.5464883 56.5548619,86.5673769 C57.2315031,86.5882655 57.8111615,86.7262794 58.2945831,86.9784345 C58.7794969,87.2305897 59.1778721,87.5834576 59.4882169,88.0355464 C59.8000537,88.4868892 60.0305742,89.0307386 60.1805245,89.6633645 C60.3304747,90.2959904 60.4058229,91.0054564 60.4065689,91.7917627 C60.4065689,92.5773229 60.3327128,93.2785827 60.1827626,93.8962882 L60.1827626,93.8962882 Z" id="Fill-14"></path>
                <path d="M72.4369052,92.4885464 L72.4369052,92.4258806 C72.9486756,92.3766432 73.4246371,92.2751843 73.8647895,92.121504 C74.30345,91.9678236 74.6861588,91.7566997 75.0099319,91.4888781 C75.3344511,91.2203105 75.5903364,90.8928072 75.7768416,90.5041302 C75.9626009,90.1161993 76.0551075,89.6618724 76.0551075,89.1426417 C76.0543615,88.5756657 75.9223157,88.0527049 75.6589703,87.5774895 C75.3948788,87.101528 75.0203762,86.6792801 74.5399386,86.3137297 C74.057263,85.9481794 73.4790966,85.6423107 72.8032015,85.4020919 C72.1250683,85.1611271 71.3730791,84.9955104 70.5472337,84.9074799 C69.9660833,84.8448142 69.4185038,84.8276557 68.9052413,84.8530204 C68.3927248,84.8776391 67.9130332,84.9380668 67.4691506,85.0313194 C67.0245221,85.1238261 66.6134644,85.2446815 66.2344857,85.3901556 C65.854015,85.5363757 65.502639,85.7027384 65.1811039,85.8899897 C65.9010143,86.7896912 66.2591044,87.24178 66.9775227,88.1489416 C67.1610439,88.0489748 67.3661997,87.949008 67.5914981,87.8497872 C67.8175425,87.7513124 68.0674596,87.6647739 68.3382652,87.5916639 C68.6105629,87.5185538 68.9052413,87.4640943 69.2237923,87.4305233 C69.5408512,87.3976984 69.8832749,87.4006825 70.2518094,87.4394756 C71.0552741,87.5230299 71.6416467,87.7401221 72.0131652,88.0825457 C72.3846837,88.4264615 72.571189,88.8643759 72.571189,89.397781 C72.571935,89.6917133 72.5144914,89.9617729 72.4003501,90.2079599 C72.2854629,90.4548929 72.0885133,90.6585566 71.8102474,90.8219352 C71.5304895,90.9853139 71.158225,91.097217 70.6912158,91.1598828 C70.2234606,91.2225486 69.63858,91.2180724 68.9343361,91.1486925 C68.4650888,91.1024392 68.2308382,91.0815506 67.7615909,91.0382814 C67.763083,91.9275385 67.763083,92.3721671 67.763083,93.2621703 C68.2420285,93.3061855 68.4807553,93.3278201 68.9589548,93.3748194 C69.709452,93.4486755 70.3420779,93.5635628 70.8545944,93.714259 C71.3678569,93.8642093 71.7826447,94.0469845 72.1004496,94.2573624 C72.4182546,94.4684864 72.6480291,94.7079592 72.7897731,94.9735427 C72.9315172,95.2406182 73.0023892,95.5263443 73.0031352,95.834451 C73.0031352,96.1627003 72.9479296,96.4581247 72.8375185,96.7214701 C72.7271074,96.9848156 72.5406021,97.2011617 72.2817328,97.3690164 C72.0221174,97.5361251 71.6737256,97.6510124 71.2380493,97.7121861 C70.8008809,97.7733599 70.2533014,97.7688837 69.5945648,97.7017418 C69.2648234,97.6689169 68.9149395,97.6137113 68.543421,97.5361251 C68.1711565,97.460777 67.7936698,97.3623022 67.410215,97.2421928 C67.0260141,97.1228295 66.6433053,96.9848156 66.2591044,96.8311352 C65.8756496,96.6752168 65.5115913,96.5028859 65.1661835,96.3119045 C65.1669295,97.390651 65.1669295,97.9300243 65.1676755,99.0087708 C65.8584911,99.334782 66.6030201,99.5996195 67.3997707,99.8040293 C68.1980133,100.009185 69.0499694,100.156897 69.9541469,100.249404 C71.0798928,100.366529 72.0571804,100.362053 72.8875019,100.233737 C73.7163313,100.102438 74.4041628,99.8704252 74.9509963,99.5317316 C75.4963377,99.193038 75.9006811,98.7640759 76.1632806,98.2433531 C76.426626,97.7218844 76.5571797,97.1340198 76.5564337,96.4782672 C76.5556877,95.4882972 76.2080418,94.6505155 75.5112581,93.9731284 C74.8159665,93.2964872 73.7909335,92.7966531 72.4369052,92.4885464" id="Fill-15"></path>
                <path d="M84.9573773,93.7918452 C84.9588693,94.8497032 84.9588693,95.3778861 84.9618534,96.43649 C86.2233751,96.6699946 86.8530169,96.7923421 88.1123005,97.0482273 C88.1145386,98.2993047 88.1152846,98.9244704 88.1182687,100.174056 C87.8153841,100.168834 87.491611,100.150929 87.1469492,100.124818 C86.8015415,100.097216 86.3785475,100.035296 85.8779673,99.9405512 C85.1125497,99.794331 84.452321,99.5496361 83.9017574,99.2049743 C83.3497018,98.8603126 82.8991051,98.4358266 82.5484752,97.9322624 C82.1978453,97.4279521 81.940468,96.8564999 81.7763433,96.2171598 C81.6114727,95.5785658 81.5286643,94.8899883 81.5271723,94.1521734 C81.5256802,93.3807876 81.6428056,92.6989243 81.8778022,92.1088216 C82.1120528,91.520211 82.4492544,91.0412654 82.8901528,90.6742231 C83.3303053,90.3064347 83.8599803,90.0565176 84.4784318,89.9274559 C85.0961372,89.7976483 85.7929209,89.8073465 86.5665448,89.9572968 C87.278995,90.0960567 87.9578742,90.3109108 88.6054205,90.601113 C89.2529668,90.8920612 89.8333712,91.2091202 90.3473798,91.5522899 C90.8128969,90.636176 91.0456555,90.178865 91.5104267,89.2657352 C90.8076748,88.8360271 90.0318128,88.445858 89.1858249,88.0982122 C88.3383449,87.7498203 87.4714684,87.489459 86.5837033,87.3163821 C85.1893899,87.0455764 83.9495028,87.0000691 82.8677722,87.1701619 C81.7852956,87.3410008 80.8729118,87.7043131 80.1313668,88.2526386 C79.3905678,88.8009641 78.828814,89.5253506 78.4490892,90.4175918 C78.0686185,91.3105791 77.8798751,92.3460563 77.8806211,93.5210396 C77.8821132,94.7780851 78.0559361,95.9127832 78.4013439,96.9228958 C78.7445136,97.9352464 79.2480778,98.8162974 79.9075605,99.5727628 C80.5677891,100.329228 81.3802061,100.95141 82.3433194,101.44826 C83.3056866,101.942872 84.4105438,102.306184 85.6556531,102.541181 C86.2472478,102.653084 86.8067636,102.741114 87.3334545,102.804526 C87.8601454,102.867938 88.3629636,102.914191 88.8441472,102.941794 C89.3245848,102.970143 89.78861,102.979095 90.2347306,102.969397 C90.6801052,102.958953 91.1217497,102.938064 91.5596641,102.905239 C91.5536959,100.315054 91.5484737,97.7248685 91.5439976,95.1346832 C89.3521876,94.6609598 87.1596316,94.2140932 84.9573773,93.7918452" id="Fill-16"></path>
                <path d="M100.806596,86.2040646 C100.804358,85.5028048 100.338094,84.8888294 99.6636913,84.697848 C92.0594982,82.5478152 84.8611406,80.8923944 77.8865893,79.6965225 C74.340005,74.090174 69.0499694,69.6341899 62.6483623,67.1797805 L62.6483623,51.003805 L62.991532,51.003805 C65.3720853,51.003805 67.3012959,49.0738484 67.3012959,46.6940411 L67.3012959,37.3971261 C67.3012959,35.0165728 65.3720853,33.0873622 62.991532,33.0873622 L39.8245927,33.0873622 C37.4440394,33.0873622 35.5140828,35.0165728 35.5140828,37.3971261 L35.5140828,46.6940411 C35.5140828,49.0738484 37.4440394,51.003805 39.8245927,51.003805 L40.1677624,51.003805 L40.1677624,67.1797805 C33.8788045,69.5909207 28.6656091,73.9335095 25.1205168,79.4003522 C17.5834656,80.6126365 9.80022747,82.3620559 1.53505969,84.697848 C0.861402637,84.8888294 0.395139448,85.5028048 0.392901385,86.2040646 L0.327997549,111.448673 C0.326505507,111.941047 0.557026027,112.405818 0.948687106,112.702734 C1.22471491,112.912366 1.55818635,113.022031 1.89762595,113.022031 C2.04011598,113.022031 2.18335203,113.002635 2.32435002,112.963095 C19.8700203,108.001309 35.2111982,105.690136 50.6016135,105.690136 C65.9927749,105.690136 81.3317148,108.001309 98.875893,112.962349 C99.3488704,113.097379 99.8584028,113.000397 100.25081,112.702734 C100.643217,112.405818 100.873738,111.941047 100.872245,111.448673 L100.806596,86.2040646 L100.806596,86.2040646 Z M44.4775263,70.3108311 L44.4775263,46.6940411 L39.8245927,46.6940411 L39.8245927,37.3971261 L62.991532,37.3971261 L62.991532,46.6940411 L58.3385984,46.6940411 L58.3385984,70.3108311 C63.6689192,71.7200649 68.3472175,74.7220538 71.8497866,78.7692183 C64.6462068,77.7941687 57.6328624,77.3182073 50.6060897,77.3182073 C44.1679276,77.3182073 37.7394637,77.7210587 31.1655258,78.5379518 C34.6457142,74.6071666 39.2486644,71.6932082 44.4775263,70.3108311 L44.4775263,70.3108311 Z M50.6016135,102.552371 C35.5043845,102.552371 20.4757894,104.727769 3.47173047,109.385924 L3.52842807,87.3984444 C20.5847085,82.6649405 35.5737645,80.455972 50.6060897,80.455972 C65.6376688,80.455972 80.6229947,82.6641945 97.6703229,87.3984444 L97.7285125,109.385924 C80.7266916,104.727769 65.6995886,102.552371 50.6016135,102.552371 L50.6016135,102.552371 Z" id="Fill-17"></path>
                <path d="M74.86968,109.863378 C66.5746713,108.507111 58.5937376,107.847629 50.6016135,107.847629 C43.0824669,107.847629 35.5752565,108.425049 27.8054468,109.622413 C26.329817,109.849949 24.8415049,110.106581 23.3449866,110.378878 C28.4820879,120.690382 39.126317,127.796979 51.4088084,127.796979 C63.5831267,127.796979 74.1482776,120.814222 79.3361083,110.648192 C77.8351138,110.362466 76.3490398,110.105089 74.86968,109.863378" id="Fill-18"></path>
            </g>
        </g>
    </g>
</svg>