<?xml version="1.0" standalone="no"?>
<!DOCTYPE svg PUBLIC "-//W3C//DTD SVG 20010904//EN"
 "http://www.w3.org/TR/2001/REC-SVG-20010904/DTD/svg10.dtd">
<svg version="1.0" xmlns="http://www.w3.org/2000/svg"
 width="700.000000pt" height="700.000000pt" viewBox="0 0 700.000000 700.000000"
 preserveAspectRatio="xMidYMid meet">
<metadata>
Created by potrace 1.11, written by Peter Selinger 2001-2013
</metadata>
<g transform="translate(0.000000,700.000000) scale(0.100000,-0.100000)"
fill="#000000" stroke="none">
<path d="M0 3500 l0 -3500 3500 0 3500 0 0 3500 0 3500 -3500 0 -3500 0 0
-3500z m4826 2272 c87 -45 141 -141 131 -236 -14 -136 -99 -210 -257 -221
-132 -9 -201 -47 -235 -127 -15 -37 -15 -38 24 -101 55 -90 99 -194 129 -306
23 -86 25 -115 26 -276 1 -200 -11 -281 -65 -430 -123 -340 -425 -574 -839
-652 -134 -25 -458 -24 -585 1 -129 26 -238 59 -328 100 -76 35 -79 36 -102
19 -39 -28 -65 -92 -65 -157 0 -130 78 -192 290 -232 67 -13 193 -18 600 -24
547 -8 544 -8 710 -62 299 -97 524 -321 609 -603 32 -109 44 -251 32 -368 -51
-470 -419 -758 -1071 -839 -161 -20 -578 -17 -719 5 -484 76 -801 264 -945
561 -54 112 -76 209 -76 335 1 218 81 399 263 587 l88 92 -69 65 c-81 78 -133
162 -169 272 -23 69 -26 98 -27 205 0 138 14 209 63 310 35 71 63 113 109 162
l35 37 -41 78 c-82 157 -122 328 -122 518 0 244 60 454 181 635 208 311 576
481 1039 481 229 0 398 -32 564 -105 50 -22 61 -24 68 -12 18 32 83 104 132
144 84 71 237 141 354 162 82 15 222 6 268 -18z"/>
<path d="M3278 5110 c-282 -45 -467 -178 -537 -387 -46 -135 -46 -332 -1 -459
85 -242 339 -375 715 -374 389 1 625 146 691 427 20 84 22 259 5 333 -52 220
-215 377 -457 441 -90 23 -321 34 -416 19z"/>
<path d="M3115 2634 c-213 -47 -435 -199 -510 -350 -24 -49 -29 -71 -28 -129
0 -91 27 -149 101 -216 169 -155 511 -231 938 -208 427 22 688 125 773 304 30
62 39 182 21 264 -34 156 -157 269 -355 327 -86 25 -833 31 -940 8z"/>
</g>
</svg>
