<?xml version="1.0" standalone="no"?>
<!DOCTYPE svg PUBLIC "-//W3C//DTD SVG 20010904//EN"
 "http://www.w3.org/TR/2001/REC-SVG-20010904/DTD/svg10.dtd">
<svg version="1.0" xmlns="http://www.w3.org/2000/svg"
 width="480.000000pt" height="480.000000pt" viewBox="0 0 480.000000 480.000000"
 preserveAspectRatio="xMidYMid meet">
<metadata>
Created by potrace 1.11, written by Peter Selinger 2001-2013
</metadata>
<g transform="translate(0.000000,480.000000) scale(0.100000,-0.100000)"
fill="#000000" stroke="none">
<path d="M3706 4495 c-124 -43 -142 -188 -34 -268 37 -28 118 -28 155 -1 43
32 65 68 70 115 10 105 -93 187 -191 154z"/>
<path d="M1897 4348 c-56 -8 -109 -46 -133 -96 -15 -31 -18 -69 -19 -247 0
-115 2 -227 6 -249 12 -68 77 -131 148 -142 l36 -6 0 -330 0 -330 -104 -54
c-185 -97 -328 -215 -443 -368 -33 -45 -66 -84 -72 -87 -6 -4 -54 -14 -106
-23 -329 -58 -846 -187 -878 -220 -15 -14 -16 -73 -18 -563 l-1 -547 23 -23
c26 -25 17 -26 189 20 116 32 357 92 410 103 35 7 219 44 245 49 51 10 256 44
300 50 25 3 61 8 80 10 56 8 106 13 280 30 256 25 782 25 1035 0 17 -1 62 -6
100 -9 73 -7 143 -15 185 -21 14 -2 48 -7 75 -10 47 -6 245 -39 310 -51 171
-31 442 -95 647 -150 169 -46 163 -46 191 -20 l23 22 -1 547 c-1 494 -2 549
-17 563 -14 14 -204 74 -288 90 -14 3 -56 14 -95 24 -63 17 -363 83 -425 93
-111 19 -102 14 -158 91 -131 181 -292 316 -490 411 l-82 39 0 333 c0 326 0
333 20 333 11 0 21 -1 23 -1 8 -6 89 45 106 67 38 48 43 88 39 330 -3 227 -3
231 -28 267 -14 21 -45 47 -69 59 -43 21 -54 21 -521 22 -262 1 -498 -2 -523
-6z m963 -179 c3 -4 5 -90 5 -191 l0 -183 -95 -5 -95 -5 0 -485 0 -484 85 -32
c154 -57 273 -132 394 -248 61 -58 68 -69 46 -68 -22 1 -139 14 -155 17 -11 2
-51 6 -90 9 -38 3 -101 8 -140 11 -193 15 -608 21 -760 10 -210 -14 -253 -17
-275 -20 -45 -6 -154 -18 -183 -20 -27 -1 -27 -1 20 48 104 107 284 221 426
267 l67 23 0 488 0 489 -95 0 -94 0 0 188 c1 103 2 189 4 192 5 8 929 7 935
-1z m-35 -1793 c17 -3 62 -8 100 -11 84 -6 138 -13 225 -25 36 -5 85 -12 110
-15 25 -3 56 -7 70 -10 14 -2 66 -11 115 -19 98 -17 105 -19 215 -41 41 -8 84
-17 95 -19 56 -11 253 -59 355 -86 63 -17 126 -33 140 -36 l26 -6 1 -454 c1
-250 -2 -454 -6 -454 -3 0 -76 18 -161 40 -147 37 -387 92 -458 105 -18 3 -63
12 -100 19 -37 8 -92 18 -122 22 -30 4 -57 8 -60 9 -3 0 -27 4 -55 9 -27 4
-61 9 -75 11 -43 7 -193 25 -255 30 -33 3 -78 8 -99 10 -210 24 -898 25 -1046
1 -14 -3 -59 -7 -100 -10 -95 -8 -271 -31 -420 -56 -63 -11 -133 -22 -155 -25
-22 -4 -48 -8 -57 -11 -10 -3 -30 -7 -45 -10 -62 -11 -268 -58 -435 -100 -97
-24 -179 -44 -182 -44 -7 0 -3 889 4 899 5 8 173 58 276 81 27 7 56 13 64 15
152 37 453 97 595 120 84 13 262 36 315 41 30 2 73 7 94 9 22 3 85 8 140 11
56 4 103 8 105 10 6 6 750 -4 786 -10z"/>
<path d="M2476 2233 c-71 -21 -140 -93 -162 -169 -33 -111 -16 -261 37 -339
53 -77 166 -121 291 -112 94 6 154 33 202 88 87 103 82 340 -11 448 -52 62
-129 94 -227 97 -49 1 -100 -4 -130 -13z m209 -119 c49 -32 69 -88 69 -189 0
-135 -34 -190 -125 -201 -114 -14 -189 74 -184 217 4 105 39 170 99 189 42 12
109 5 141 -16z"/>
<path d="M1957 2234 c-2 -2 -77 -7 -182 -13 -6 -1 -10 -108 -9 -303 1 -167 2
-307 3 -311 1 -7 131 -3 256 9 66 6 138 34 172 66 25 24 46 78 48 123 2 65
-55 134 -112 135 -11 1 -6 7 16 18 53 26 75 64 75 126 0 66 -19 97 -76 124
-35 17 -179 37 -191 26z m90 -118 c26 -8 38 -44 29 -80 -7 -28 -41 -43 -113
-50 l-53 -4 0 68 c0 57 3 69 18 72 28 6 95 3 119 -6z m24 -247 c21 -11 31 -62
19 -94 -13 -33 -65 -55 -130 -55 l-50 0 0 79 0 80 38 3 c47 4 102 -2 123 -13z"/>
<path d="M3011 2192 c-24 -9 -46 -21 -48 -27 -1 -5 12 -28 30 -49 32 -38 34
-39 69 -27 55 18 103 19 139 2 44 -22 59 -48 48 -87 -12 -41 -50 -57 -128 -52
l-61 3 0 -47 c0 -44 2 -48 25 -48 98 0 185 -48 185 -103 0 -41 -9 -53 -48 -70
-43 -18 -144 -5 -217 28 l-54 23 0 -55 0 -55 43 -18 c23 -11 76 -24 117 -31
147 -23 250 6 286 80 11 22 19 53 17 68 -1 15 -2 36 -3 45 -2 31 -61 87 -113
106 l-51 19 36 7 c44 8 92 46 105 84 25 73 -17 149 -107 190 -72 33 -203 40
-270 14z"/>
<path d="M1363 2181 c-24 -4 -44 -9 -46 -12 -3 -2 -51 -143 -107 -314 -57
-170 -105 -316 -108 -323 -3 -10 7 -12 49 -6 89 11 94 15 113 88 10 36 23 69
30 74 6 5 37 12 69 16 31 3 81 9 110 12 l52 6 23 -71 23 -70 42 4 c23 3 56 7
72 9 17 2 29 7 28 12 -1 5 -21 59 -43 119 -23 61 -50 133 -60 160 -10 28 -32
86 -48 130 -17 44 -38 101 -48 128 l-17 47 -46 -1 c-25 -1 -65 -5 -88 -8z
m122 -349 c-2 -2 -20 -5 -42 -7 -21 -2 -55 -6 -77 -10 -45 -8 -46 -24 6 157
l33 117 42 -127 c23 -70 40 -128 38 -130z"/>
<path d="M3637 2105 c-62 -21 -105 -57 -134 -110 -25 -45 -28 -60 -28 -145 0
-116 21 -179 81 -248 76 -87 226 -139 400 -140 l75 0 -2 159 c-1 88 -5 162 -9
164 -4 2 -22 7 -41 10 -19 3 -65 13 -104 21 -38 8 -80 17 -92 20 -22 4 -23 1
-23 -50 l0 -54 63 -14 62 -13 1 -64 2 -64 -60 6 c-77 7 -144 47 -176 104 -32
58 -40 159 -18 217 21 56 44 76 103 91 57 15 126 2 195 -37 l44 -25 26 49 26
48 -62 29 c-33 16 -81 35 -106 41 -67 18 -179 21 -223 5z"/>
<path d="M760 2071 l-65 -16 -2 -307 c-2 -241 0 -308 10 -308 6 0 30 5 52 10
45 10 44 10 205 41 63 12 117 23 119 25 9 8 5 104 -4 104 -5 0 -58 -9 -118
-20 -59 -12 -111 -19 -115 -16 -4 2 -7 115 -6 250 0 136 -2 248 -5 250 -3 2
-35 -4 -71 -13z"/>
<path d="M972 3881 c-48 -31 -71 -75 -68 -132 4 -84 63 -142 145 -143 57 -1
91 19 129 74 38 57 19 150 -40 193 -40 30 -124 34 -166 8z"/>
<path d="M3384 3586 c-98 -43 -109 -194 -19 -255 47 -32 123 -34 163 -4 51 38
74 82 69 135 -11 108 -113 167 -213 124z"/>
<path d="M1269 3277 c-112 -76 -71 -252 64 -273 89 -13 177 75 164 166 -14
108 -140 167 -228 107z"/>
<path d="M3969 3277 c-66 -44 -86 -129 -48 -197 27 -48 71 -73 131 -74 54 -1
89 20 126 75 44 64 13 167 -62 203 -49 23 -106 20 -147 -7z"/>
<path d="M685 2986 c-34 -15 -62 -46 -76 -82 -37 -98 47 -207 152 -199 82 7
138 72 135 156 -4 105 -113 169 -211 125z"/>
<path d="M2128 1255 c-2 -2 -59 -6 -128 -9 -69 -4 -141 -9 -160 -11 -19 -2
-62 -7 -95 -10 -53 -4 -153 -17 -255 -31 -72 -10 -215 -35 -228 -39 -14 -5 52
-123 120 -215 69 -93 208 -222 313 -292 106 -70 184 -109 305 -151 199 -71
475 -82 689 -27 343 87 617 292 796 595 30 51 41 77 33 80 -16 5 -307 53 -363
59 -22 3 -78 10 -125 15 -47 6 -116 13 -155 16 -38 3 -90 8 -115 11 -48 6
-626 14 -632 9z"/>
</g>
</svg>
